<?xml version="1.0" encoding="UTF-8" standalone="no"?>
<svg
   xmlns:dc="http://purl.org/dc/elements/1.1/"
   xmlns:cc="http://creativecommons.org/ns#"
   xmlns:rdf="http://www.w3.org/1999/02/22-rdf-syntax-ns#"
   xmlns:svg="http://www.w3.org/2000/svg"
   xmlns="http://www.w3.org/2000/svg"
   xmlns:sodipodi="http://sodipodi.sourceforge.net/DTD/sodipodi-0.dtd"
   xmlns:inkscape="http://www.inkscape.org/namespaces/inkscape"
   width="26.984921mm"
   height="8.6617498mm"
   viewBox="0 0 26.984921 8.6617499"
   version="1.1"
   id="svg1196"
   inkscape:version="1.0.1 (3bc2e813f5, 2020-09-07)"
   sodipodi:docname="jeancarllo_logo_pt1.svg">
  <style
     id="style1759"></style>
  <defs
     id="defs1190" />
  <sodipodi:namedview
     id="base"
     pagecolor="#ffffff"
     bordercolor="#666666"
     borderopacity="1.0"
     inkscape:pageopacity="0.0"
     inkscape:pageshadow="2"
     inkscape:zoom="5.6"
     inkscape:cx="44.303031"
     inkscape:cy="10.340836"
     inkscape:document-units="mm"
     inkscape:current-layer="layer1"
     inkscape:document-rotation="0"
     showgrid="false"
     fit-margin-top="0"
     fit-margin-left="0"
     fit-margin-right="0"
     fit-margin-bottom="0"
     inkscape:window-width="1366"
     inkscape:window-height="704"
     inkscape:window-x="0"
     inkscape:window-y="0"
     inkscape:window-maximized="1" />
  <metadata
     id="metadata1193">
    <rdf:RDF>
      <cc:Work
         rdf:about="">
        <dc:format>image/svg+xml</dc:format>
        <dc:type
           rdf:resource="http://purl.org/dc/dcmitype/StillImage" />
        <dc:title></dc:title>
      </cc:Work>
    </rdf:RDF>
  </metadata>
  <g
     inkscape:label="Layer 1"
     inkscape:groupmode="layer"
     id="layer1"
     transform="translate(-45.228731,-141.6359)">
    <g
       id="g1412"
       transform="translate(0,0.05412247)">
      <path
         style="fill:#ffffff;stroke:#ffffff;stroke-width:0.1;stroke-linecap:butt;stroke-linejoin:miter;stroke-miterlimit:4;stroke-dasharray:none;stroke-opacity:1"
         d="m 51.131173,141.8508 c 0.70107,-0.24175 1.12933,-0.16176 1.28071,-0.10464 0.15139,0.0571 0.435251,0.4689 0.0258,1.18314 -0.36042,0.6287 -0.42859,1.25267 -0.42859,1.25267 0,0 -0.20721,1.54743 -0.39943,2.63836 -0.19222,1.09092 -1.14661,2.67029 -2.85327,3.25668 0,0 -2.18335,0.45743 -3.47545,-1.18315 0,0 -0.0361,-0.27372 0.29563,-0.0938 0.33172,0.1799 1.34894,0.96022 2.76594,0.48134 1.41699,-0.47889 2.11979,-1.72046 2.20916,-2.5357 0.0894,-0.81524 0.10465,-1.05586 0.20449,-2.25365 0.0999,-1.19778 0.24491,-1.61673 0.24491,-1.61673 0,0 -1.16995,-0.12972 -1.85271,-0.6945 -0.47648,-0.39414 0.05889,-0.29081 0.05889,-0.29081 0,0 1.22286,0.2026 1.923919,-0.0392 z"
         id="path917-3-3"
         sodipodi:nodetypes="csscsccsssccscc" />
      <path
         id="path925-5-6"
         style="fill:#ffffff;stroke:#ffffff;stroke-width:0.1;stroke-linecap:butt;stroke-linejoin:miter;stroke-miterlimit:4;stroke-dasharray:none;stroke-opacity:1"
         d="m 55.91961,145.20979 c -1.659586,-0.0265 -2.659785,0.72967 -2.659785,0.72967 -1.59404,0.9693 -1.123444,2.60294 -1.123444,2.60294 0.705339,1.72702 3.119188,1.64487 3.119188,1.64487 2.78693,-0.11761 3.212206,-1.41386 3.212206,-1.41386 0,0 -0.06795,-0.38843 -0.27957,-0.12507 -0.170338,0.21199 -0.497996,0.68123 -2.238105,0.83614 -1.740111,0.15489 -2.71818,-0.8041 -2.71818,-0.8041 0,0 0.0016,0.003 2.228288,-0.006 2.226649,-0.007 3.266467,-1.50947 3.266467,-1.50947 0,0 0.837639,-1.21526 -1.557012,-1.79316 -0.448995,-0.10834 -0.867071,-0.15618 -1.250053,-0.16227 z m -0.771528,1.14308 c 0.116562,-0.004 0.239744,-0.003 0.369485,0.003 1.037942,0.0505 1.598883,0.24622 1.900143,0.42945 0.30126,0.18319 0.342617,0.35398 0.342617,0.35398 -1.015942,0.61323 -2.181688,0.72046 -3.093868,0.67437 -0.912172,-0.0461 -1.570448,-0.24545 -1.570448,-0.24545 0,0 0.08604,-0.32819 0.432015,-0.64389 0.302688,-0.27625 0.804108,-0.54303 1.620056,-0.57155 z" />
      <path
         id="path929-5-6"
         style="fill:#ffffff;stroke:#ffffff;stroke-width:0.1;stroke-linecap:butt;stroke-linejoin:miter;stroke-miterlimit:4;stroke-dasharray:none;stroke-opacity:1"
         d="m 65.081326,145.13849 c -0.04086,-0.003 -0.08352,-1.6e-4 -0.126092,0.003 -0.340548,0.0262 -0.501777,0.20412 -0.501777,0.20412 0,0 -1.951747,-0.36414 -3.410127,0.16949 -1.458381,0.53367 -1.793174,1.48673 -1.793174,1.48673 0,0 -0.511776,1.38612 0.160716,2.16421 0.672478,0.77811 1.380643,1.28833 2.736783,0.84232 1.356138,-0.44598 1.362708,-0.7653 1.362708,-0.7653 0,0 0.401783,1.41136 1.449522,0.79478 1.04774,-0.61661 0.815454,-1.36893 0.815454,-1.36893 0,0 -0.26539,-0.15928 -0.344681,0.2155 -0.0793,0.37476 -0.386585,0.70779 -0.645956,0.69607 -0.259379,-0.0117 -0.582732,-0.20185 -0.419611,-0.82114 0.163129,-0.61926 0.442561,-1.64147 0.85266,-2.60191 0.358846,-0.84037 0.149614,-1.00783 -0.136425,-1.01904 z m -2.880963,1.1658 c 0.881523,-0.003 1.698607,0.34883 1.698607,0.34883 l -0.205674,1.70326 c 0,0 -0.817772,0.90037 -2.185914,0.95395 -1.368128,0.0536 -1.581422,-1.02925 -1.480013,-1.36737 0.10142,-0.33811 0.177065,-1.06629 1.298112,-1.49087 0.280265,-0.10615 0.581044,-0.14676 0.874882,-0.1478 z" />
      <path
         style="fill:#ffffff;stroke:#ffffff;stroke-width:0.1;stroke-linecap:butt;stroke-linejoin:miter;stroke-miterlimit:4;stroke-dasharray:none;stroke-opacity:1"
         d="m 65.586143,149.73123 c 0,0 -0.41123,0.4492 0.32332,0.36968 0.70181,-0.076 1.209628,-1.50212 1.209628,-1.50212 0,0 0.3994,-0.86687 0.42437,-2.05343 0,0 2.14508,-0.59434 2.60992,0.31871 0,0 0.13315,0.86962 -0.22107,1.63913 -0.35422,0.76951 0.17102,1.58061 0.6424,1.57709 0.47137,-0.004 1.307407,0.0475 1.540806,-0.94686 0,0 0.14613,-0.65372 -0.0717,-0.6333 -0.217839,0.0204 -0.365111,0.40635 -0.365111,0.40635 0,0 -0.510167,0.87075 -0.823087,0.55151 -0.31291,-0.31925 -0.0295,-0.85835 0.14532,-1.3093 0.17478,-0.45096 0.30319,-1.53615 0.14502,-1.85794 -0.15817,-0.32179 -0.44425,-0.84393 -1.35119,-0.95587 l -2.25301,-0.0151 c 0,0 -0.19986,-0.2519 -0.849978,-0.13963 0,0 -0.37298,0.0944 -0.25463,1.43059 0,0 -1.2e-4,2.3057 -0.85101,3.12049 z"
         id="path931-6-6"
         sodipodi:nodetypes="cscccsccscsssccccc" />
    </g>
  </g>
</svg>
