<?xml version="1.0" encoding="UTF-8" standalone="no"?>
<svg
   xmlns:dc="http://purl.org/dc/elements/1.1/"
   xmlns:cc="http://creativecommons.org/ns#"
   xmlns:rdf="http://www.w3.org/1999/02/22-rdf-syntax-ns#"
   xmlns:svg="http://www.w3.org/2000/svg"
   xmlns="http://www.w3.org/2000/svg"
   xmlns:sodipodi="http://sodipodi.sourceforge.net/DTD/sodipodi-0.dtd"
   xmlns:inkscape="http://www.inkscape.org/namespaces/inkscape"
   width="30.062265mm"
   height="8.6617508mm"
   viewBox="0 0 30.062265 8.6617508"
   version="1.1"
   id="svg1827"
   inkscape:version="1.0.1 (3bc2e813f5, 2020-09-07)"
   sodipodi:docname="jeancarllo_logo_pt2.svg">
  <style
     id="style2390"></style>
  <defs
     id="defs1821" />
  <sodipodi:namedview
     id="base"
     pagecolor="#ffffff"
     bordercolor="#666666"
     borderopacity="1.0"
     inkscape:pageopacity="0.0"
     inkscape:pageshadow="2"
     inkscape:zoom="1.4"
     inkscape:cx="61.37142"
     inkscape:cy="37.460104"
     inkscape:document-units="mm"
     inkscape:current-layer="layer1"
     inkscape:document-rotation="0"
     showgrid="false"
     fit-margin-top="0"
     fit-margin-left="0"
     fit-margin-right="0"
     fit-margin-bottom="0"
     inkscape:window-width="1366"
     inkscape:window-height="704"
     inkscape:window-x="0"
     inkscape:window-y="0"
     inkscape:window-maximized="1" />
  <metadata
     id="metadata1824">
    <rdf:RDF>
      <cc:Work
         rdf:about="">
        <dc:format>image/svg+xml</dc:format>
        <dc:type
           rdf:resource="http://purl.org/dc/dcmitype/StillImage" />
        <dc:title />
      </cc:Work>
    </rdf:RDF>
  </metadata>
  <g
     inkscape:label="Layer 1"
     inkscape:groupmode="layer"
     id="layer1"
     transform="translate(-110.67329,-152.89319)">
    <path
       style="fill:#ffffff;stroke:#ffffff;stroke-width:0.1;stroke-linecap:butt;stroke-linejoin:miter;stroke-miterlimit:4;stroke-dasharray:none;stroke-opacity:1"
       d="m 115.99064,155.60889 c 0,0 -0.32745,0.66106 0.40291,0.28681 0.73035,-0.37425 1.14762,-1.51608 1.14762,-1.51608 0,0 0.20948,-1.11861 -0.80085,-1.25251 -1.01032,-0.1339 -2.05063,-0.13768 -3.04835,0.41526 -0.99773,0.55294 -2.03476,1.78417 -2.49468,2.88604 -0.45992,1.10186 -0.73424,2.04845 -0.11754,3.54486 0.61668,1.49641 2.92331,1.50215 2.92331,1.50215 0,0 1.75494,0.0432 2.58252,-1.38339 0,0 -0.0299,-0.27869 -0.49522,-0.0318 -0.46534,0.24691 -0.83358,0.6946 -1.90782,0.67062 -1.07423,-0.024 -1.91949,-0.51616 -2.45779,-1.72554 0,0 -0.43592,-1.53336 0.86808,-3.05772 0,0 1.30072,-1.86091 3.53555,-1.69933 0,0 0.98907,0.13739 -0.13774,1.36063 z"
       id="path951-2-1"
       sodipodi:nodetypes="cscssssccsscccc" />
    <path
       style="fill:#ffffff;stroke:#ffffff;stroke-width:0.1;stroke-linecap:butt;stroke-linejoin:miter;stroke-miterlimit:4;stroke-dasharray:none;stroke-opacity:1"
       d="m 123.88215,160.68193 c 0,0 -0.71613,0.77072 -0.0179,0.77108 0.69827,2.6e-4 1.29831,-1.53501 1.29831,-1.53501 0,0 0.28477,-0.50677 0.27386,-2.2207 0,0 3.28325,-0.0471 4.27748,-0.44129 0.99424,-0.39418 -2.32722,-0.60289 -2.32722,-0.60289 0,0 -2.20109,-0.16694 -2.83763,-0.005 0,0 -0.3107,-0.0126 -0.30534,0.53209 0.005,0.54472 -0.0566,2.4965 -0.0566,2.4965 0,0 0.047,0.54219 -0.30492,1.00522 z"
       id="path957-9-8" />
    <path
       style="fill:#ffffff;stroke:#ffffff;stroke-width:0.1;stroke-linecap:butt;stroke-linejoin:miter;stroke-miterlimit:4;stroke-dasharray:none;stroke-opacity:1"
       d="m 131.30863,153.78441 c 0,0 0.0103,-0.96343 0.65723,-0.8064 0.64695,0.15704 0.69305,0.26992 0.63304,0.7841 -0.06,0.51418 -1.9608,5.6071 -1.9608,5.6071 0,0 -0.6319,1.39846 0.0801,1.54052 0.71206,0.14205 0.84445,-0.91845 0.84445,-0.91845 0,0 0.26691,-0.37748 0.25827,0.30782 -0.009,0.6853 -0.84269,1.09655 -0.84269,1.09655 0,0 -0.97019,0.3244 -1.18571,-0.28626 -0.21553,-0.61065 -0.0807,-1.70182 0.17891,-2.49681 0.2596,-0.79499 0.96091,-3.1783 0.96091,-3.1783 0,0 0.32826,-0.76063 0.37625,-1.64987 z"
       id="path959-1-7" />
    <path
       style="fill:#ffffff;stroke:#ffffff;stroke-width:0.1;stroke-linecap:butt;stroke-linejoin:miter;stroke-miterlimit:4;stroke-dasharray:none;stroke-opacity:1"
       d="m 133.69024,153.76646 c 0,0 0.0103,-0.96343 0.65723,-0.8064 0.64695,0.15704 0.69304,0.26992 0.63304,0.7841 -0.06,0.51418 -1.9608,5.6071 -1.9608,5.6071 0,0 -0.6319,1.39846 0.0801,1.54052 0.71206,0.14205 0.84445,-0.91845 0.84445,-0.91845 0,0 0.26691,-0.37748 0.25827,0.30782 -0.009,0.6853 -0.84269,1.09655 -0.84269,1.09655 0,0 -0.97019,0.3244 -1.18572,-0.28626 -0.21552,-0.61065 -0.0807,-1.70182 0.17892,-2.49681 0.2596,-0.79499 0.96092,-3.1783 0.96092,-3.1783 0,0 0.32825,-0.76063 0.37624,-1.64987 z"
       id="path970-2-9" />
    <path
       id="path1020-0-2"
       style="fill:#ffffff;stroke:#ffffff;stroke-width:0.1;stroke-linecap:butt;stroke-linejoin:miter;stroke-miterlimit:4;stroke-dasharray:none;stroke-opacity:1"
       d="m 123.0284,156.45039 c -0.0409,-0.003 -0.0835,-1.6e-4 -0.12609,0.003 -0.34055,0.0262 -0.50178,0.20359 -0.50178,0.20359 0,0 -1.95175,-0.36364 -3.41013,0.17003 -1.45838,0.53363 -1.79317,1.48672 -1.79317,1.48672 0,0 -0.51178,1.38612 0.16071,2.16421 0.67248,0.77811 1.38065,1.28831 2.73679,0.84233 1.35614,-0.44599 1.3627,-0.76534 1.3627,-0.76534 0,0 0.4023,1.41087 1.45004,0.79428 1.04774,-0.61658 0.81546,-1.3689 0.81546,-1.3689 0,0 -0.26591,-0.15878 -0.3452,0.21601 -0.0793,0.37475 -0.38659,0.70778 -0.64595,0.69606 -0.25939,-0.0116 -0.58222,-0.20184 -0.4191,-0.82113 0.16313,-0.61925 0.44204,-1.642 0.85214,-2.60241 0.35885,-0.8404 0.14962,-1.00732 -0.13642,-1.01854 z m -2.88096,1.16581 c 0.88152,-0.003 1.6986,0.34882 1.6986,0.34882 l -0.20567,1.70326 c 0,0 -0.81726,0.90037 -2.1854,0.95393 -1.36813,0.0536 -1.58194,-1.02923 -1.48053,-1.36734 0.10142,-0.33814 0.17706,-1.06683 1.29811,-1.49138 0.28027,-0.10615 0.58105,-0.14626 0.87489,-0.14729 z" />
    <path
       style="fill:#ffffff;stroke:#ffffff;stroke-width:0.1;stroke-linecap:butt;stroke-linejoin:miter;stroke-miterlimit:4;stroke-dasharray:none;stroke-opacity:1"
       d="m 140.42216,156.81063 c 0,0 -0.008,0.69375 -2.32351,0.8026 -2.31574,0.10884 -2.64841,1.21993 -2.64841,1.21993 0,0 -0.40677,1.15714 0.43293,1.61073 0.83969,0.4536 2.3044,0.51409 3.44737,-0.45142 1.14297,-0.96553 0.0216,-1.21528 -0.55939,-1.25201 -0.58105,-0.0367 -1.18405,-0.005 -1.19466,-0.5276 -0.0106,-0.52286 0.71987,-0.60226 1.21321,-0.48064 0.49331,0.12163 1.04118,0.14982 1.56458,0.51132 0.52341,0.36151 0.39063,1.4904 -0.14726,1.93883 -0.53791,0.44844 -1.37562,1.11788 -2.5897,1.24582 -1.21407,0.12795 -2.38961,-0.0608 -2.90928,-0.81695 -0.51968,-0.75609 -0.41605,-1.91751 -0.0346,-2.67716 0.38144,-0.75964 1.71395,-1.30326 2.14918,-1.30478 0.43524,-0.002 0.49439,-0.13957 3.59955,0.18133 z"
       id="path1022-9-2" />
  </g>
</svg>
