<?xml version="1.0" encoding="UTF-8" standalone="no"?>
<svg
   xmlns:dc="http://purl.org/dc/elements/1.1/"
   xmlns:cc="http://creativecommons.org/ns#"
   xmlns:rdf="http://www.w3.org/1999/02/22-rdf-syntax-ns#"
   xmlns:svg="http://www.w3.org/2000/svg"
   xmlns="http://www.w3.org/2000/svg"
   xmlns:sodipodi="http://sodipodi.sourceforge.net/DTD/sodipodi-0.dtd"
   xmlns:inkscape="http://www.inkscape.org/namespaces/inkscape"
   width="60.203846mm"
   height="8.6895609mm"
   viewBox="0 0 60.203846 8.6895609"
   version="1.1"
   id="svg917"
   inkscape:version="1.0.1 (3bc2e813f5, 2020-09-07)"
   sodipodi:docname="jeancarllo_logo.svg">
  <style
     id="style1480"></style>
  <defs
     id="defs911" />
  <sodipodi:namedview
     id="base"
     pagecolor="#ffffff"
     bordercolor="#666666"
     borderopacity="1.0"
     inkscape:pageopacity="0.0"
     inkscape:pageshadow="2"
     inkscape:zoom="1.979899"
     inkscape:cx="123.0124"
     inkscape:cy="-28.704709"
     inkscape:document-units="mm"
     inkscape:current-layer="layer1"
     inkscape:document-rotation="0"
     showgrid="false"
     fit-margin-top="0"
     fit-margin-left="0"
     fit-margin-right="0"
     fit-margin-bottom="0"
     inkscape:window-width="1366"
     inkscape:window-height="704"
     inkscape:window-x="0"
     inkscape:window-y="0"
     inkscape:window-maximized="1" />
  <metadata
     id="metadata914">
    <rdf:RDF>
      <cc:Work
         rdf:about="">
        <dc:format>image/svg+xml</dc:format>
        <dc:type
           rdf:resource="http://purl.org/dc/dcmitype/StillImage" />
        <dc:title></dc:title>
      </cc:Work>
    </rdf:RDF>
  </metadata>
  <g
     inkscape:label="Layer 1"
     inkscape:groupmode="layer"
     id="layer1"
     transform="translate(-61.368316,-99.220698)">
    <path
       style="fill:#ffffff;stroke:#ffffff;stroke-width:0.1;stroke-linecap:butt;stroke-linejoin:miter;stroke-miterlimit:4;stroke-dasharray:none;stroke-opacity:1"
       d="m 67.270758,99.517585 c 0.70107,-0.24175 1.12933,-0.16176 1.28071,-0.10464 0.15139,0.0571 0.435251,0.4689 0.0258,1.183145 -0.36042,0.6287 -0.42859,1.25267 -0.42859,1.25267 0,0 -0.20721,1.54743 -0.39943,2.63836 -0.19222,1.09092 -1.14661,2.67029 -2.85327,3.25668 0,0 -2.18335,0.45743 -3.47545,-1.18315 0,0 -0.0361,-0.27372 0.29563,-0.0938 0.33172,0.1799 1.34894,0.96022 2.76594,0.48134 1.41699,-0.47889 2.11979,-1.72046 2.20916,-2.5357 0.0894,-0.81524 0.10465,-1.05586 0.20449,-2.25365 0.0999,-1.19778 0.24491,-1.61673 0.24491,-1.61673 0,0 -1.16995,-0.12972 -1.85271,-0.694505 -0.47648,-0.39414 0.05889,-0.29081 0.05889,-0.29081 0,0 1.22286,0.2026 1.92392,-0.0392 z"
       id="path917-3"
       sodipodi:nodetypes="csscsccsssccscc" />
    <path
       id="path925-5"
       style="fill:#ffffff;stroke:#ffffff;stroke-width:0.377953;stroke-linecap:butt;stroke-linejoin:miter;stroke-miterlimit:4;stroke-dasharray:none;stroke-opacity:1"
       d="M 40.40625 13.818359 C 34.133792 13.718528 30.353516 16.576172 30.353516 16.576172 C 24.328798 20.239668 26.107422 26.412109 26.107422 26.412109 C 28.773274 32.939429 37.896484 32.630859 37.896484 32.630859 C 48.429763 32.186349 50.037109 27.285156 50.037109 27.285156 C 50.037109 27.285156 49.780292 25.817124 48.980469 26.8125 C 48.336664 27.613722 47.098278 29.389198 40.521484 29.974609 C 33.944691 30.56002 30.25 26.935547 30.25 26.935547 C 30.25 26.935547 30.254199 26.938566 38.669922 26.912109 C 47.085607 26.884216 51.015625 21.208984 51.015625 21.208984 C 51.015625 21.208984 54.181505 16.613876 45.130859 14.429688 C 43.433863 14.020152 41.85374 13.841397 40.40625 13.818359 z M 37.490234 18.138672 C 37.930791 18.12327 38.396353 18.126551 38.886719 18.150391 C 42.809642 18.341257 44.929739 19.080952 46.068359 19.773438 C 47.20698 20.465885 47.363281 21.109375 47.363281 21.109375 C 43.523508 23.427132 39.117531 23.834392 35.669922 23.660156 C 32.22235 23.48592 29.734375 22.732422 29.734375 22.732422 C 29.734375 22.732422 30.0615 21.490072 31.369141 20.296875 C 32.513161 19.252828 34.406338 18.246484 37.490234 18.138672 z "
       transform="matrix(0.26458333,0,0,0.26458333,61.368316,99.220698)" />
    <path
       id="path929-5"
       style="fill:#ffffff;stroke:#ffffff;stroke-width:0.377953;stroke-linecap:butt;stroke-linejoin:miter;stroke-miterlimit:4;stroke-dasharray:none;stroke-opacity:1"
       d="M 75.033203 13.548828 C 74.878762 13.542765 74.717526 13.54823 74.556641 13.560547 C 73.269523 13.659193 72.660156 14.330078 72.660156 14.330078 C 72.660156 14.330078 65.283472 12.955711 59.771484 14.972656 C 54.259497 16.989601 52.994141 20.591797 52.994141 20.591797 C 52.994141 20.591797 51.059868 25.828681 53.601562 28.769531 C 56.143219 31.710382 58.819744 33.64071 63.945312 31.955078 C 69.070881 30.269447 69.095703 29.0625 69.095703 29.0625 C 69.095703 29.0625 70.614257 34.39491 74.574219 32.064453 C 78.534181 29.734034 77.658203 26.890625 77.658203 26.890625 C 77.658203 26.890625 76.653194 26.290578 76.353516 27.707031 C 76.053799 29.123485 74.892405 30.382187 73.912109 30.337891 C 72.931776 30.29367 71.711608 29.574923 72.328125 27.234375 C 72.944679 24.893865 73.998844 21.028409 75.548828 17.398438 C 76.905097 14.222212 76.114294 13.591269 75.033203 13.548828 z M 64.144531 17.955078 C 67.476267 17.943545 70.564453 19.273438 70.564453 19.273438 L 69.787109 25.708984 C 69.787109 25.708984 66.698267 29.113975 61.527344 29.316406 C 56.356459 29.518989 55.548359 25.426334 55.931641 24.148438 C 56.31496 22.870504 56.600851 20.116393 60.837891 18.511719 C 61.89716 18.110541 63.033953 17.958923 64.144531 17.955078 z "
       transform="matrix(0.26458333,0,0,0.26458333,61.368316,99.220698)" />
    <path
       style="fill:#ffffff;stroke:#ffffff;stroke-width:0.1;stroke-linecap:butt;stroke-linejoin:miter;stroke-miterlimit:4;stroke-dasharray:none;stroke-opacity:1"
       d="m 81.725728,107.39802 c 0,0 -0.41123,0.4492 0.32332,0.36968 0.70181,-0.076 1.209628,-1.50212 1.209628,-1.50212 0,0 0.3994,-0.86687 0.42437,-2.05343 0,0 2.14508,-0.59434 2.60992,0.31871 0,0 0.13315,0.86962 -0.22107,1.63913 -0.35422,0.76951 0.17102,1.58061 0.6424,1.57709 0.47137,-0.004 1.307409,0.0475 1.540809,-0.94686 0,0 0.146132,-0.65372 -0.0717,-0.6333 -0.21784,0.0204 -0.36511,0.40635 -0.36511,0.40635 0,0 -0.51017,0.87075 -0.82309,0.55151 -0.31291,-0.31925 -0.0295,-0.85835 0.14532,-1.3093 0.17478,-0.45096 0.30319,-1.53615 0.14502,-1.85794 -0.15817,-0.32179 -0.44425,-0.84393 -1.35119,-0.95587 l -2.25301,-0.0151 c 0,0 -0.19986,-0.2519 -0.849978,-0.13963 0,0 -0.37298,0.0944 -0.25463,1.43059 0,0 -1.2e-4,2.3057 -0.85101,3.12049 z"
       id="path931-6"
       sodipodi:nodetypes="cscccsccscsssccccc" />
    <path
       style="fill:#ffffff;stroke:#ffffff;stroke-width:0.1;stroke-linecap:butt;stroke-linejoin:miter;stroke-miterlimit:4;stroke-dasharray:none;stroke-opacity:1"
       d="m 96.827245,101.9364 c 0,0 -0.327448,0.66106 0.40291,0.28681 0.730351,-0.37425 1.147623,-1.51608 1.147623,-1.51608 0,0 0.209468,-1.118615 -0.800852,-1.252515 -1.010319,-0.1339 -2.050629,-0.13768 -3.048349,0.41526 -0.997731,0.552945 -2.03476,1.784175 -2.49468,2.886045 -0.45992,1.10186 -0.73424,2.04845 -0.117551,3.54486 0.61669,1.49641 2.92332,1.50215 2.92332,1.50215 0,0 1.754942,0.0432 2.582521,-1.38339 0,0 -0.0299,-0.27869 -0.49522,-0.0318 -0.465342,0.24691 -0.833591,0.6946 -1.907821,0.67062 -1.074229,-0.024 -1.919488,-0.51616 -2.457789,-1.72554 0,0 -0.435922,-1.53336 0.86808,-3.05772 0,0 1.300718,-1.86091 3.53555,-1.69933 0,0 0.989068,0.13739 -0.137742,1.36063 z"
       id="path951-2"
       sodipodi:nodetypes="cscssssccsscccc" />
    <path
       style="fill:#ffffff;stroke:#ffffff;stroke-width:0.1;stroke-linecap:butt;stroke-linejoin:miter;stroke-miterlimit:4;stroke-dasharray:none;stroke-opacity:1"
       d="m 104.71876,107.00944 c 0,0 -0.71613,0.77072 -0.0179,0.77108 0.69826,2.6e-4 1.29831,-1.53501 1.29831,-1.53501 0,0 0.28476,-0.50677 0.27386,-2.2207 0,0 3.28324,-0.0471 4.27747,-0.44129 0.99424,-0.39418 -2.32722,-0.60289 -2.32722,-0.60289 0,0 -2.20109,-0.16695 -2.83762,-0.005 0,0 -0.3107,-0.0126 -0.30535,0.53209 0.005,0.54472 -0.0566,2.4965 -0.0566,2.4965 0,0 0.047,0.54219 -0.30492,1.00522 z"
       id="path957-9" />
    <path
       style="fill:#ffffff;stroke:#ffffff;stroke-width:0.1;stroke-linecap:butt;stroke-linejoin:miter;stroke-miterlimit:4;stroke-dasharray:none;stroke-opacity:1"
       d="m 112.14524,100.11192 c 0,0 0.0103,-0.963435 0.65723,-0.806405 0.64695,0.15704 0.69304,0.26992 0.63304,0.784105 -0.06,0.51418 -1.9608,5.6071 -1.9608,5.6071 0,0 -0.63191,1.39846 0.0801,1.54052 0.71206,0.14205 0.84445,-0.91845 0.84445,-0.91845 0,0 0.26691,-0.37748 0.25827,0.30782 -0.009,0.6853 -0.84269,1.09655 -0.84269,1.09655 0,0 -0.97019,0.3244 -1.18572,-0.28626 -0.21552,-0.61065 -0.0807,-1.70182 0.17892,-2.49681 0.2596,-0.79499 0.96091,-3.1783 0.96091,-3.1783 0,0 0.32826,-0.76063 0.37625,-1.64987 z"
       id="path959-1" />
    <path
       style="fill:#ffffff;stroke:#ffffff;stroke-width:0.1;stroke-linecap:butt;stroke-linejoin:miter;stroke-miterlimit:4;stroke-dasharray:none;stroke-opacity:1"
       d="m 114.52685,100.09397 c 0,0 0.0103,-0.963435 0.65723,-0.806405 0.64695,0.15704 0.69304,0.26992 0.63304,0.784105 -0.06,0.51418 -1.9608,5.6071 -1.9608,5.6071 0,0 -0.63191,1.39846 0.0801,1.54052 0.71206,0.14205 0.84445,-0.91845 0.84445,-0.91845 0,0 0.26691,-0.37748 0.25827,0.30782 -0.009,0.6853 -0.84269,1.09655 -0.84269,1.09655 0,0 -0.97019,0.3244 -1.18572,-0.28626 -0.21552,-0.61065 -0.0807,-1.70182 0.17892,-2.49681 0.2596,-0.79499 0.96091,-3.1783 0.96091,-3.1783 0,0 0.32826,-0.76063 0.37625,-1.64987 z"
       id="path970-2" />
    <path
       id="path1020-0"
       style="fill:#ffffff;stroke:#ffffff;stroke-width:0.377953;stroke-linecap:butt;stroke-linejoin:miter;stroke-miterlimit:4;stroke-dasharray:none;stroke-opacity:1"
       d="M 160.61719 13.443359 C 160.46275 13.437296 160.30151 13.444715 160.14062 13.457031 C 158.85351 13.555677 158.24414 14.226562 158.24414 14.226562 C 158.24414 14.226562 150.86747 12.850243 145.35547 14.867188 C 139.84348 16.884132 138.57812 20.486328 138.57812 20.486328 C 138.57812 20.486328 136.64386 25.725165 139.18555 28.666016 C 141.72721 31.606866 144.40371 33.537194 149.5293 31.851562 C 154.65487 30.165931 154.67969 28.958984 154.67969 28.958984 C 154.67969 28.958984 156.20019 34.291394 160.16016 31.960938 C 164.12012 29.630519 163.24219 26.787109 163.24219 26.787109 C 163.24219 26.787109 162.23718 26.187062 161.9375 27.603516 C 161.63778 29.019969 160.47639 30.276718 159.49609 30.232422 C 158.51576 30.188201 157.29559 29.469454 157.91211 27.128906 C 158.52866 24.788396 159.58283 20.924894 161.13281 17.294922 C 162.48908 14.118697 161.69828 13.485801 160.61719 13.443359 z M 149.72852 17.849609 C 153.06025 17.838076 156.15039 19.169922 156.15039 19.169922 L 155.37109 25.605469 C 155.37109 25.605469 152.28225 29.010459 147.11133 29.212891 C 141.94043 29.415473 141.13234 25.322818 141.51562 24.044922 C 141.89894 22.766988 142.18483 20.012877 146.42188 18.408203 C 147.48114 18.007025 148.61794 17.853454 149.72852 17.849609 z "
       transform="matrix(0.26458333,0,0,0.26458333,61.368316,99.220698)" />
    <path
       style="fill:#ffffff;stroke:#ffffff;stroke-width:0.1;stroke-linecap:butt;stroke-linejoin:miter;stroke-miterlimit:4;stroke-dasharray:none;stroke-opacity:1"
       d="m 121.25877,103.13814 c 0,0 -0.008,0.69374 -2.32351,0.8026 -2.31574,0.10884 -2.64841,1.21993 -2.64841,1.21993 0,0 -0.40677,1.15714 0.43293,1.61073 0.83969,0.4536 2.3044,0.51409 3.44737,-0.45142 1.14297,-0.96553 0.0216,-1.21528 -0.5594,-1.25201 -0.58104,-0.0367 -1.18404,-0.005 -1.19465,-0.5276 -0.0106,-0.52286 0.71987,-0.60226 1.2132,-0.48064 0.49332,0.12163 1.04119,0.14982 1.56459,0.51132 0.52341,0.36151 0.39062,1.4904 -0.14727,1.93883 -0.5379,0.44844 -1.37561,1.11788 -2.58969,1.24582 -1.21407,0.12795 -2.38961,-0.0608 -2.90928,-0.81695 -0.51968,-0.75609 -0.41605,-1.91751 -0.0346,-2.67717 0.38144,-0.75963 1.71394,-1.30325 2.14918,-1.30478 0.43524,-0.002 0.49439,-0.13956 3.59955,0.18134 z"
       id="path1022-9" />
  </g>
</svg>
