<?xml version="1.0" encoding="UTF-8" standalone="no"?>
<svg
   xmlns:dc="http://purl.org/dc/elements/1.1/"
   xmlns:cc="http://creativecommons.org/ns#"
   xmlns:rdf="http://www.w3.org/1999/02/22-rdf-syntax-ns#"
   xmlns:svg="http://www.w3.org/2000/svg"
   xmlns="http://www.w3.org/2000/svg"
   xmlns:sodipodi="http://sodipodi.sourceforge.net/DTD/sodipodi-0.dtd"
   xmlns:inkscape="http://www.inkscape.org/namespaces/inkscape"
   fill="#000000"
   viewBox="0 0 46.018002 46.018002"
   width="46.018002"
   height="46.018002"
   version="1.1"
   id="svg4"
   sodipodi:docname="instagram.svg"
   inkscape:version="1.0.1 (3bc2e813f5, 2020-09-07)">
  <style
     id="style835"></style>
  <metadata
     id="metadata10">
    <rdf:RDF>
      <cc:Work
         rdf:about="">
        <dc:format>image/svg+xml</dc:format>
        <dc:type
           rdf:resource="http://purl.org/dc/dcmitype/StillImage" />
        <dc:title />
      </cc:Work>
    </rdf:RDF>
  </metadata>
  <defs
     id="defs8" />
  <sodipodi:namedview
     pagecolor="#ffffff"
     bordercolor="#666666"
     borderopacity="1"
     objecttolerance="10"
     gridtolerance="10"
     guidetolerance="10"
     inkscape:pageopacity="0"
     inkscape:pageshadow="2"
     inkscape:window-width="1366"
     inkscape:window-height="704"
     id="namedview6"
     showgrid="false"
     fit-margin-top="0"
     fit-margin-left="0"
     fit-margin-right="0"
     fit-margin-bottom="0"
     inkscape:zoom="4.82"
     inkscape:cx="47.234006"
     inkscape:cy="15.883201"
     inkscape:window-x="0"
     inkscape:window-y="0"
     inkscape:window-maximized="1"
     inkscape:current-layer="svg4"
     inkscape:document-rotation="0" />
  <path
     id="path850"
     style="fill:#ffffff;stroke:none;stroke-width:0.227726;stroke-linecap:round;stroke-linejoin:round;stop-color:#000000"
     d="M 23.009978,0.1134929 A 22.895136,22.895138 0 0 0 0.1134929,23.009978 22.895136,22.895138 0 0 0 23.009978,45.904509 22.895136,22.895138 0 0 0 45.904509,23.009978 22.895136,22.895138 0 0 0 23.009978,0.1134929 Z m -5.41211,9.1875 h 10.822266 c 4.568893,3e-7 8.296875,3.7272371 8.296875,8.2968751 v 10.822266 c 0,4.569022 -3.727851,8.296875 -8.296875,8.296875 H 17.597868 c -4.569638,0 -8.2968751,-3.727983 -8.2968751,-8.296875 V 17.597868 c 3e-7,-4.569508 3.7273681,-8.2968751 8.2968751,-8.2968751 z m 0,2.1640631 c -3.399845,10e-7 -6.132812,2.732966 -6.132812,6.132812 v 10.822266 c 0,3.399018 2.733097,6.132812 6.132812,6.132812 h 10.822266 c 3.398889,0 6.132812,-2.733925 6.132812,-6.132812 V 17.597868 c 0,-3.399716 -2.733792,-6.132812 -6.132812,-6.132812 z m 12.626953,2.886718 c 0.797223,0 1.441407,0.646136 1.441407,1.44336 0,0.797224 -0.644184,1.441406 -1.441407,1.441406 -0.797225,0 -1.443359,-0.644182 -1.443359,-1.441406 0,-0.797224 0.646134,-1.44336 1.443359,-1.44336 z m -7.214843,1.44336 c 3.971562,0 7.214843,3.243281 7.214843,7.214844 0,3.971562 -3.243281,7.214843 -7.214843,7.214843 -3.971563,0 -7.214844,-3.243281 -7.214844,-7.214843 0,-3.971563 3.243281,-7.214844 7.214844,-7.214844 z m 0,2.164062 c -2.801596,0 -5.050782,2.249186 -5.050782,5.050782 0,2.801594 2.249186,5.048828 5.050782,5.048828 2.801594,0 5.048828,-2.247235 5.048828,-5.048828 0,-2.801595 -2.247234,-5.050782 -5.048828,-5.050782 z" />
</svg>
