<?xml version="1.0" encoding="UTF-8" standalone="no"?>
<svg
   xmlns:dc="http://purl.org/dc/elements/1.1/"
   xmlns:cc="http://creativecommons.org/ns#"
   xmlns:rdf="http://www.w3.org/1999/02/22-rdf-syntax-ns#"
   xmlns:svg="http://www.w3.org/2000/svg"
   xmlns="http://www.w3.org/2000/svg"
   xmlns:sodipodi="http://sodipodi.sourceforge.net/DTD/sodipodi-0.dtd"
   xmlns:inkscape="http://www.inkscape.org/namespaces/inkscape"
   fill="#000000"
   viewBox="0 0 46.018002 46.018002"
   width="46.018002"
   height="46.018002"
   version="1.1"
   id="svg4"
   sodipodi:docname="amazon_music.svg"
   inkscape:version="1.0.1 (3bc2e813f5, 2020-09-07)">
  <path
     id="path844-3"
     style="opacity:1;fill:#000000;stroke:none;stroke-width:0.188;stroke-linecap:round;stroke-linejoin:round;stroke-miterlimit:4;stroke-dasharray:none;stop-color:#000000"
     d="M 22.840053,0.09403502 A 22.914898,22.914898 0 0 0 11.488491,3.20341 22.914898,22.914898 0 0 0 9.7697408,4.308878 a 22.914898,22.914898 0 0 0 -4.414063,4.09375 22.914898,22.914898 0 0 0 -0.253906,0.3125 22.914898,22.914898 0 0 0 -0.240234,0.304688 22.914898,22.914898 0 0 0 -0.490235,0.660156 22.914898,22.914898 0 0 0 -0.648437,0.958984 22.914898,22.914898 0 0 0 -3.62890603,12.369141 22.914898,22.914898 0 0 0 2.92578103,11.201172 22.914898,22.914898 0 0 0 0.183593,0.324219 22.914898,22.914898 0 0 0 0.015626,0.02539 22.914898,22.914898 0 0 0 0.49414,0.806641 22.914898,22.914898 0 0 0 0.677734,1 22.914898,22.914898 0 0 0 0.375,0.509766 22.914898,22.914898 0 0 0 0.011719,0.01367 22.914898,22.914898 0 0 0 0.011719,0.01563 22.914898,22.914898 0 0 0 0.492188,0.623046 22.914898,22.914898 0 0 0 0.00586,0.0078 22.914898,22.914898 0 0 0 0.460937,0.542969 22.914898,22.914898 0 0 0 0.101563,0.115234 22.914898,22.914898 0 0 0 0.039062,0.04492 22.914898,22.914898 0 0 0 0.00977,0.01172 22.914898,22.914898 0 0 0 0.025391,0.0293 22.914898,22.914898 0 0 0 0.15039,0.164062 22.914898,22.914898 0 0 0 0.550782,0.585938 22.914898,22.914898 0 0 0 0.285156,0.285156 22.914898,22.914898 0 0 0 0.90625,0.847656 22.914898,22.914898 0 0 0 0.640625,0.546875 22.914898,22.914898 0 0 0 0.490234,0.392578 22.914898,22.914898 0 0 0 0.060547,0.04687 22.914898,22.914898 0 0 0 0.011719,0.0098 22.914898,22.914898 0 0 0 0.019531,0.01367 22.914898,22.914898 0 0 0 0.427734,0.320312 22.914898,22.914898 0 0 0 0.25586,0.185547 22.914898,22.914898 0 0 0 0.00977,0.0078 22.914898,22.914898 0 0 0 0.060547,0.04297 22.914898,22.914898 0 0 0 0.044922,0.03125 22.914898,22.914898 0 0 0 0.7656252,0.515625 22.914898,22.914898 0 0 0 0.04492,0.0293 22.914898,22.914898 0 0 0 0.0039,0.002 22.914898,22.914898 0 0 0 0.04687,0.0293 22.914898,22.914898 0 0 0 0.388672,0.242188 22.914898,22.914898 0 0 0 0.04102,0.02539 22.914898,22.914898 0 0 0 0.0098,0.0059 22.914898,22.914898 0 0 0 0.04102,0.02344 22.914898,22.914898 0 0 0 0.158203,0.0957 22.914898,22.914898 0 0 0 0.02734,0.01563 22.914898,22.914898 0 0 0 0.347656,0.201172 22.914898,22.914898 0 0 0 0.0957,0.05469 22.914898,22.914898 0 0 0 11.201172,2.923828 22.914898,22.914898 0 0 0 11.199217,-2.923828 22.914898,22.914898 0 0 0 0.01563,-0.0078 22.914898,22.914898 0 0 0 0.0625,-0.03516 22.914898,22.914898 0 0 0 0.04492,-0.02539 22.914898,22.914898 0 0 0 0.20312,-0.117187 22.914898,22.914898 0 0 0 0.02539,-0.01367 22.914898,22.914898 0 0 0 0.02735,-0.01563 22.914898,22.914898 0 0 0 0.24805,-0.148438 22.914898,22.914898 0 0 0 0.06835,-0.04102 22.914898,22.914898 0 0 0 0.002,-0.002 22.914898,22.914898 0 0 0 0.11914,-0.07227 22.914898,22.914898 0 0 0 0.19726,-0.123047 22.914898,22.914898 0 0 0 0.02539,-0.01563 22.914898,22.914898 0 0 0 0.30469,-0.195312 22.914898,22.914898 0 0 0 0.0098,-0.0078 22.914898,22.914898 0 0 0 0.02539,-0.01563 22.914898,22.914898 0 0 0 0.30859,-0.207031 22.914898,22.914898 0 0 0 0.02539,-0.01758 22.914898,22.914898 0 0 0 0.0098,-0.0059 22.914898,22.914898 0 0 0 0.10547,-0.07227 22.914898,22.914898 0 0 0 0.21484,-0.150391 22.914898,22.914898 0 0 0 0.02344,-0.01758 22.914898,22.914898 0 0 0 0.27929,-0.201172 22.914898,22.914898 0 0 0 0.02344,-0.01758 22.914898,22.914898 0 0 0 0.29883,-0.222656 22.914898,22.914898 0 0 0 0.02344,-0.01758 22.914898,22.914898 0 0 0 0.04883,-0.03906 22.914898,22.914898 0 0 0 0.26953,-0.208984 22.914898,22.914898 0 0 0 0.04883,-0.03711 22.914898,22.914898 0 0 0 0.06054,-0.04883 22.914898,22.914898 0 0 0 0.18164,-0.146484 22.914898,22.914898 0 0 0 0.02344,-0.01953 22.914898,22.914898 0 0 0 0.02734,-0.02148 22.914898,22.914898 0 0 0 0.23829,-0.201172 22.914898,22.914898 0 0 0 0.01953,-0.01563 22.914898,22.914898 0 0 0 0.02343,-0.01953 22.914898,22.914898 0 0 0 0.10547,-0.08984 22.914898,22.914898 0 0 0 0.04102,-0.03516 22.914898,22.914898 0 0 0 0.13476,-0.117187 22.914898,22.914898 0 0 0 0.12696,-0.113282 22.914898,22.914898 0 0 0 0.17383,-0.15625 22.914898,22.914898 0 0 0 0.10937,-0.09766 22.914898,22.914898 0 0 0 0.01563,-0.01563 22.914898,22.914898 0 0 0 0.03125,-0.03125 22.914898,22.914898 0 0 0 0.13867,-0.128906 22.914898,22.914898 0 0 0 0.10156,-0.0957 22.914898,22.914898 0 0 0 0.02148,-0.01953 22.914898,22.914898 0 0 0 0.12696,-0.123046 22.914898,22.914898 0 0 0 0.04101,-0.03906 22.914898,22.914898 0 0 0 0.02149,-0.02148 22.914898,22.914898 0 0 0 0.09961,-0.09766 22.914898,22.914898 0 0 0 0.16406,-0.166015 22.914898,22.914898 0 0 0 0.02148,-0.01953 22.914898,22.914898 0 0 0 0.09766,-0.09961 22.914898,22.914898 0 0 0 0.16211,-0.167968 22.914898,22.914898 0 0 0 0.02148,-0.02148 22.914898,22.914898 0 0 0 0.09571,-0.101562 22.914898,22.914898 0 0 0 0.1582,-0.171875 22.914898,22.914898 0 0 0 0.02148,-0.02148 22.914898,22.914898 0 0 0 0.09375,-0.101562 22.914898,22.914898 0 0 0 0.07422,-0.08398 22.914898,22.914898 0 0 0 0.0039,-0.0059 22.914898,22.914898 0 0 0 0.16992,-0.189453 22.914898,22.914898 0 0 0 0.17188,-0.197266 22.914898,22.914898 0 0 0 0.01953,-0.02344 22.914898,22.914898 0 0 0 0.0332,-0.03906 22.914898,22.914898 0 0 0 0.17188,-0.203125 22.914898,22.914898 0 0 0 0.03515,-0.04297 22.914898,22.914898 0 0 0 0.01953,-0.02148 22.914898,22.914898 0 0 0 0.08789,-0.107422 22.914898,22.914898 0 0 0 0.16602,-0.205078 22.914898,22.914898 0 0 0 0.08594,-0.109375 22.914898,22.914898 0 0 0 0.14453,-0.185547 22.914898,22.914898 0 0 0 0.01758,-0.02148 22.914898,22.914898 0 0 0 0.08593,-0.111328 22.914898,22.914898 0 0 0 0.15821,-0.210938 22.914898,22.914898 0 0 0 0.08203,-0.111328 22.914898,22.914898 0 0 0 0.04297,-0.06055 22.914898,22.914898 0 0 0 0.09375,-0.128906 22.914898,22.914898 0 0 0 0.09765,-0.138672 22.914898,22.914898 0 0 0 0.13282,-0.191406 22.914898,22.914898 0 0 0 0.01757,-0.02344 22.914898,22.914898 0 0 0 0.01368,-0.01953 22.914898,22.914898 0 0 0 0.17578,-0.257812 22.914898,22.914898 0 0 0 0.01953,-0.03125 22.914898,22.914898 0 0 0 0.01758,-0.02539 22.914898,22.914898 0 0 0 0.07617,-0.115234 22.914898,22.914898 0 0 0 0.09375,-0.148438 22.914898,22.914898 0 0 0 0.0332,-0.04883 22.914898,22.914898 0 0 0 0.01563,-0.02539 22.914898,22.914898 0 0 0 0.01172,-0.01758 22.914898,22.914898 0 0 0 0.0625,-0.09961 22.914898,22.914898 0 0 0 0.0098,-0.01367 22.914898,22.914898 0 0 0 0.17969,-0.289063 22.914898,22.914898 0 0 0 0.02344,-0.03906 22.914898,22.914898 0 0 0 0.11914,-0.201172 22.914898,22.914898 0 0 0 0.01562,-0.02539 22.914898,22.914898 0 0 0 0.07031,-0.119141 22.914898,22.914898 0 0 0 0.11524,-0.203125 22.914898,22.914898 0 0 0 0.01562,-0.02539 22.914898,22.914898 0 0 0 0.05274,-0.09375 c 4e-5,-0.0013 -5e-5,-0.0026 0,-0.0039 a 22.914898,22.914898 0 0 0 2.92383,-11.201172 22.914898,22.914898 0 0 0 -2.92383,-11.197265 22.914898,22.914898 0 0 0 0,-0.0039 22.914898,22.914898 0 0 0 -0.06836,-0.11914 22.914898,22.914898 0 0 0 -0.09375,-0.164063 22.914898,22.914898 0 0 0 -0.02344,-0.03906 22.914898,22.914898 0 0 0 -0.01367,-0.02344 22.914898,22.914898 0 0 0 -0.07031,-0.121094 22.914898,22.914898 0 0 0 -0.1211,-0.201172 22.914898,22.914898 0 0 0 -0.01562,-0.02734 22.914898,22.914898 0 0 0 -0.0039,-0.0078 22.914898,22.914898 0 0 0 -0.15039,-0.242187 22.914898,22.914898 0 0 0 -0.04101,-0.06641 22.914898,22.914898 0 0 0 -0.01563,-0.02539 22.914898,22.914898 0 0 0 -0.07422,-0.115234 22.914898,22.914898 0 0 0 -0.12891,-0.197266 22.914898,22.914898 0 0 0 -0.01562,-0.02539 22.914898,22.914898 0 0 0 -0.07617,-0.115234 22.914898,22.914898 0 0 0 -0.01367,-0.02148 22.914898,22.914898 0 0 0 -0.11719,-0.173828 22.914898,22.914898 0 0 0 -0.06836,-0.101562 22.914898,22.914898 0 0 0 -0.02539,-0.03711 22.914898,22.914898 0 0 0 -0.15234,-0.216796 22.914898,22.914898 0 0 0 -0.08008,-0.111328 22.914898,22.914898 0 0 0 -0.13868,-0.189454 22.914898,22.914898 0 0 0 -0.01757,-0.02539 22.914898,22.914898 0 0 0 -0.08203,-0.111328 22.914898,22.914898 0 0 0 -0.14063,-0.185547 22.914898,22.914898 0 0 0 -0.01758,-0.02539 22.914898,22.914898 0 0 0 -0.08398,-0.109375 22.914898,22.914898 0 0 0 -0.14453,-0.183594 22.914898,22.914898 0 0 0 -0.01953,-0.02539 22.914898,22.914898 0 0 0 -0.23243,-0.289063 22.914898,22.914898 0 0 0 -0.01953,-0.02344 22.914898,22.914898 0 0 0 -0.0059,-0.0059 22.914898,22.914898 0 0 0 -0.08203,-0.101562 22.914898,22.914898 0 0 0 -0.06445,-0.07617 22.914898,22.914898 0 0 0 -0.08594,-0.103516 22.914898,22.914898 0 0 0 -0.10937,-0.126953 22.914898,22.914898 0 0 0 -0.1543,-0.177734 22.914898,22.914898 0 0 0 -0.01953,-0.02344 22.914898,22.914898 0 0 0 -0.08985,-0.101562 22.914898,22.914898 0 0 0 -0.1582,-0.173828 22.914898,22.914898 0 0 0 -0.01953,-0.02344 22.914898,22.914898 0 0 0 -0.09375,-0.101562 22.914898,22.914898 0 0 0 -0.03125,-0.03125 22.914898,22.914898 0 0 0 -0.19531,-0.208985 22.914898,22.914898 0 0 0 -0.04883,-0.05273 22.914898,22.914898 0 0 0 -0.16406,-0.167969 22.914898,22.914898 0 0 0 -0.11719,-0.121094 22.914898,22.914898 0 0 0 -0.16602,-0.166015 22.914898,22.914898 0 0 0 -0.02148,-0.02148 22.914898,22.914898 0 0 0 -0.09766,-0.0957 22.914898,22.914898 0 0 0 -0.16797,-0.162109 22.914898,22.914898 0 0 0 -0.02343,-0.02148 22.914898,22.914898 0 0 0 -0.26172,-0.244141 22.914898,22.914898 0 0 0 -0.0098,-0.0098 22.914898,22.914898 0 0 0 -0.02148,-0.02148 22.914898,22.914898 0 0 0 -0.01563,-0.01563 22.914898,22.914898 0 0 0 -0.16015,-0.144531 22.914898,22.914898 0 0 0 -0.12305,-0.109375 22.914898,22.914898 0 0 0 -0.06055,-0.05273 22.914898,22.914898 0 0 0 -0.04297,-0.03906 22.914898,22.914898 0 0 0 -0.05273,-0.04492 22.914898,22.914898 0 0 0 -0.125,-0.109375 22.914898,22.914898 0 0 0 -0.12695,-0.107422 22.914898,22.914898 0 0 0 -0.17969,-0.15039 22.914898,22.914898 0 0 0 -0.02344,-0.01953 22.914898,22.914898 0 0 0 -0.0098,-0.0078 22.914898,22.914898 0 0 0 -0.2793,-0.228516 22.914898,22.914898 0 0 0 -0.01172,-0.0078 22.914898,22.914898 0 0 0 -0.01172,-0.0098 22.914898,22.914898 0 0 0 -0.04883,-0.03906 22.914898,22.914898 0 0 0 -0.05859,-0.04688 22.914898,22.914898 0 0 0 -0.0625,-0.04883 22.914898,22.914898 0 0 0 -0.12305,-0.0957 22.914898,22.914898 0 0 0 -0.13281,-0.101562 22.914898,22.914898 0 0 0 -0.21094,-0.160157 22.914898,22.914898 0 0 0 -0.11133,-0.08203 22.914898,22.914898 0 0 0 -0.15039,-0.107422 22.914898,22.914898 0 0 0 -0.03906,-0.0293 22.914898,22.914898 0 0 0 -0.02539,-0.01758 22.914898,22.914898 0 0 0 -0.2168,-0.152343 22.914898,22.914898 0 0 0 -0.19726,-0.136719 22.914898,22.914898 0 0 0 -0.0293,-0.01953 22.914898,22.914898 0 0 0 -0.21875,-0.148438 22.914898,22.914898 0 0 0 -0.11523,-0.07617 22.914898,22.914898 0 0 0 -0.15821,-0.101562 22.914898,22.914898 0 0 0 -0.03906,-0.02539 22.914898,22.914898 0 0 0 -0.02539,-0.01563 22.914898,22.914898 0 0 0 -0.07031,-0.04492 22.914898,22.914898 0 0 0 -0.04688,-0.0293 22.914898,22.914898 0 0 0 -0.04882,-0.0293 22.914898,22.914898 0 0 0 -0.28907,-0.179688 22.914898,22.914898 0 0 0 -0.0039,-0.002 22.914898,22.914898 0 0 0 -0.20118,-0.121094 22.914898,22.914898 0 0 0 -0.02539,-0.01563 22.914898,22.914898 0 0 0 -0.04492,-0.02539 22.914898,22.914898 0 0 0 -0.30469,-0.175782 22.914898,22.914898 0 0 0 -0.09374,-0.05273 22.914898,22.914898 0 0 0 -11.201177,-2.92578098 22.914898,22.914898 0 0 0 -0.169922,0 z M 32.009972,16.019816 c 0.552,0 1,0.448 1,1 0,0.551999 -0.448,0.999999 -1,1 -0.552,0 -1,-0.448001 -1,-1 0,-0.552 0.448,-1 1,-1 z m -24.7499972,3 h 1.5 v 0.689453 c 0.37,-0.134 0.737375,-0.275344 1.109375,-0.402344 0.5350002,-0.19 1.2054222,-0.150422 1.7324222,0.142578 0.218,0.117 0.410125,0.28175 0.578125,0.46875 0.562,-0.208 1.123453,-0.417328 1.689453,-0.611328 0.535,-0.19 1.205422,-0.152375 1.732422,0.140625 0.532,0.286 0.94675,0.808969 1.09375,1.417969 0.039,0.152 0.05545,0.305937 0.06445,0.460937 l 0.0039,0.316407 0.0059,0.625 -0.0059,1.25 -0.0039,2.5 h -1.5 l -0.0059,-4.84375 c -0.042,-0.425 -0.517578,-0.796156 -1.017578,-0.660157 -0.51,0.135 -1.02411,0.254907 -1.53711,0.378907 0.034,0.143 0.05155,0.287594 0.06055,0.433593 l 0.0039,0.316407 0.0059,0.625 -0.0059,1.25 -0.0039,2.5 h -1.5 l -0.0059,-4.84375 c -0.042,-0.426 -0.517578,-0.79811 -1.017578,-0.66211 -0.4890002,0.13 -0.9845632,0.246235 -1.4765632,0.365235 v 5.138672 h -1.5 z m 12.5000002,0 0.0039,2.419922 c 0.014,0.79 0.01085,1.652765 0.002,2.384765 -0.035,0.391 0.402563,0.846016 0.976563,0.916016 0.306,0.034 0.534719,0.0084 0.886719,-0.140625 0.208,-0.082 0.418859,-0.15161 0.630859,-0.224609 v -5.355469 l 1.5,0.002 v 6.818359 h -1.5 v -0.236328 c -0.041,0.022 -0.07914,0.04541 -0.119141,0.06641 -0.381,0.228 -0.991671,0.386751 -1.513671,0.34375 -0.541999,-0.035 -1.088204,-0.224937 -1.533203,-0.585937 -0.442,-0.356 -0.77536,-0.915297 -0.81836,-1.529297 -0.027,-0.88 -0.02072,-1.634031 -0.01172,-2.457031 l -0.0039,-2.419922 z m 11.499997,0 h 1.5 v 7 h -1.5 z m -2.94922,0.0059 c 0.59349,0.0343 1.1761,0.195 1.69922,0.445313 v 1.240234 c -0.83,-0.426 -1.82015,-0.641328 -2.660153,-0.361328 -0.25,0.077 -0.580078,0.251453 -0.580078,0.564453 0,0.751 0.871168,0.893 1.201171,1 0.34,0.106 0.70938,0.20325 1.10938,0.40625 0.4,0.194 1.20312,0.67625 1.20312,1.78125 0,1.058 -0.52312,1.447094 -0.95312,1.621094 -0.89,0.387001 -1.679223,0.31889 -2.449223,0.212891 -0.65,-0.116 -1.281094,-0.308782 -1.871094,-0.675782 v -1.074218 c 0.64,0.260999 1.42125,0.531843 2.03125,0.589843 0.61,0.068 1.279917,-0.0097 1.669927,-0.222656 0.18999,-0.116 0.22851,-0.278985 0.22851,-0.458984 0,-0.180001 -0.0341,-0.281016 -0.12109,-0.416016 -0.159,-0.246 -0.59711,-0.432656 -1.287112,-0.597656 -0.340001,-0.097 -0.711094,-0.194016 -1.121094,-0.416016 -0.41,-0.184 -1.242078,-0.851234 -1.080078,-1.990234 0.087,-0.609 0.716609,-1.206375 1.599609,-1.484375 0.25724,-0.08125 0.520822,-0.13064 0.785155,-0.154297 0.19825,-0.01774 0.39788,-0.02117 0.5957,-0.0098 z m 8.92579,0 c 0.355,-0.01987 0.7082,0.01919 1.0332,0.117188 0.27,0.084 0.51023,0.196937 0.74023,0.335937 v 1.230469 c -0.72,-0.494 -1.54945,-0.634062 -2.18945,-0.289063 -0.68,0.373 -1.08055,1.154609 -1.06055,1.97461 -0.01,0.904 0.28992,1.741812 0.91992,2.132812 0.56001,0.382 1.44008,0.382187 2.33008,0.242188 v 1.02539 c -0.35,0.112 -0.71961,0.175891 -1.09961,0.212891 -0.63,0.047 -1.32921,-0.04586 -1.94921,-0.380859 -0.63,-0.326 -1.08961,-0.893891 -1.34961,-1.462891 -0.25,-0.587 -0.34157,-1.182953 -0.35157,-1.751953 -0.03,-1.21 0.62141,-2.571438 1.94141,-3.148438 0.325,-0.139499 0.68016,-0.218406 1.03516,-0.238281 z m 0.3789,9.996094 c 1.111,0 2.08497,0.210547 2.29297,0.560547 0.10577,0.128087 0.12041,0.541432 0.05469,1.076172 a 18.599447,18.599447 0 0 1 -2.49024,4.044922 c 0.0015,-0.004 3.2e-4,-0.0057 0.002,-0.0098 0.417,-1.12 1.32129,-3.5025 0.90429,-4.0625 -0.486,-0.63 -2.98665,-0.278672 -4.09765,-0.138672 -0.347,0 -0.34836,-0.280234 -0.07031,-0.490234 0.97199,-0.7 2.29229,-0.980469 3.40429,-0.980469 z M 6.9728658,29.783488 c 0.05562,-0.01087 0.114015,-0.0026 0.166015,0.02539 l 0.015625,0.0078 c 2.249,1.217 4.6524072,2.148672 7.0664072,2.888672 2.433,0.692 4.909391,1.188062 7.40039,1.289062 2.484989,0.087 4.99722,-0.107187 7.449219,-0.617187 2.442,-0.504 4.90492,-1.236296 7.16992,-2.279297 l 0.03906,-0.01758 c 0.251,-0.115 0.54611,-0.0069 0.66211,0.24414 0.104,0.223 0.0309,0.483141 -0.16211,0.619141 -2.214,1.57 -4.68815,2.60339 -7.28515,3.275391 -2.595001,0.662999 -5.29733,0.915468 -7.98633,0.730468 -2.687999,-0.18 -5.313109,-0.836921 -7.787109,-1.794921 -2.466,-0.99 -4.7974222,-2.263641 -6.8574222,-3.931641 -0.107,-0.087 -0.124109,-0.244563 -0.03711,-0.351563 0.0385,-0.0475 0.09086,-0.07702 0.146485,-0.08789 z" />
  <style
     id="style835"></style>
  <metadata
     id="metadata10">
    <rdf:RDF>
      <cc:Work
         rdf:about="">
        <dc:format>image/svg+xml</dc:format>
        <dc:type
           rdf:resource="http://purl.org/dc/dcmitype/StillImage" />
        <dc:title />
      </cc:Work>
    </rdf:RDF>
  </metadata>
  <defs
     id="defs8" />
  <sodipodi:namedview
     pagecolor="#ffffff"
     bordercolor="#666666"
     borderopacity="1"
     objecttolerance="10"
     gridtolerance="10"
     guidetolerance="10"
     inkscape:pageopacity="0"
     inkscape:pageshadow="2"
     inkscape:window-width="1366"
     inkscape:window-height="704"
     id="namedview6"
     showgrid="false"
     fit-margin-top="0"
     fit-margin-left="0"
     fit-margin-right="0"
     fit-margin-bottom="0"
     inkscape:zoom="6.8165094"
     inkscape:cx="34.187465"
     inkscape:cy="26.105242"
     inkscape:window-x="0"
     inkscape:window-y="0"
     inkscape:window-maximized="1"
     inkscape:current-layer="svg4"
     inkscape:document-rotation="0" />
</svg>
