<?xml version="1.0" encoding="UTF-8" standalone="no"?>
<svg
   xmlns:dc="http://purl.org/dc/elements/1.1/"
   xmlns:cc="http://creativecommons.org/ns#"
   xmlns:rdf="http://www.w3.org/1999/02/22-rdf-syntax-ns#"
   xmlns:svg="http://www.w3.org/2000/svg"
   xmlns="http://www.w3.org/2000/svg"
   xmlns:sodipodi="http://sodipodi.sourceforge.net/DTD/sodipodi-0.dtd"
   xmlns:inkscape="http://www.inkscape.org/namespaces/inkscape"
   fill="#000000"
   viewBox="0 0 46.018002 46.018002"
   width="46.018002"
   height="46.018002"
   version="1.1"
   id="svg4"
   sodipodi:docname="apple_music.svg"
   inkscape:version="1.0.1 (3bc2e813f5, 2020-09-07)">
  <style
     id="style835"></style>
  <metadata
     id="metadata10">
    <rdf:RDF>
      <cc:Work
         rdf:about="">
        <dc:format>image/svg+xml</dc:format>
        <dc:type
           rdf:resource="http://purl.org/dc/dcmitype/StillImage" />
        <dc:title />
      </cc:Work>
    </rdf:RDF>
  </metadata>
  <defs
     id="defs8" />
  <sodipodi:namedview
     pagecolor="#ffffff"
     bordercolor="#666666"
     borderopacity="1"
     objecttolerance="10"
     gridtolerance="10"
     guidetolerance="10"
     inkscape:pageopacity="0"
     inkscape:pageshadow="2"
     inkscape:window-width="1366"
     inkscape:window-height="704"
     id="namedview6"
     showgrid="false"
     fit-margin-top="0"
     fit-margin-left="0"
     fit-margin-right="0"
     fit-margin-bottom="0"
     inkscape:zoom="4.82"
     inkscape:cx="14.587315"
     inkscape:cy="41.870265"
     inkscape:window-x="0"
     inkscape:window-y="0"
     inkscape:window-maximized="1"
     inkscape:current-layer="svg4"
     inkscape:document-rotation="0" />
  <path
     id="path831"
     style="fill:#000000"
     d="M 22.765837,8.9460561e-4 A 23.009001,23.009001 0 0 0 13.607634,2.0087076 a 23.009001,23.009001 0 0 0 -0.332031,0.152343 23.009001,23.009001 0 0 0 -0.09375,0.04297 23.009001,23.009001 0 0 0 -0.248047,0.119141 23.009001,23.009001 0 0 0 -0.125,0.0625 23.009001,23.009001 0 0 0 -0.257813,0.128906 23.009001,23.009001 0 0 0 -0.0918,0.04687 23.009001,23.009001 0 0 0 -0.154297,0.08008 23.009001,23.009001 0 0 0 -0.146485,0.07813 23.009001,23.009001 0 0 0 -0.353515,0.19336 23.009001,23.009001 0 0 0 -0.34961,0.199218 23.009001,23.009001 0 0 0 -0.330078,0.195313 23.009001,23.009001 0 0 0 -0.03516,0.01953 23.009001,23.009001 0 0 0 -0.326172,0.203125 23.009001,23.009001 0 0 0 -0.335937,0.214844 23.009001,23.009001 0 0 0 -0.0039,0.002 23.009001,23.009001 0 0 0 -0.197265,0.130859 23.009001,23.009001 0 0 0 -0.2832032,0.191407 23.009001,23.009001 0 0 0 -0.13086,0.0918 23.009001,23.009001 0 0 0 -0.095703,0.06641 23.009001,23.009001 0 0 0 -0.287109,0.207031 23.009001,23.009001 0 0 0 -0.324219,0.242187 23.009001,23.009001 0 0 0 -0.318359,0.246094 23.009001,23.009001 0 0 0 -0.3125,0.25 23.009001,23.009001 0 0 0 -0.00977,0.0078 23.009001,23.009001 0 0 0 -0.296875,0.246093 23.009001,23.009001 0 0 0 -0.013672,0.01172 23.009001,23.009001 0 0 0 -0.298828,0.257813 23.009001,23.009001 0 0 0 -0.277344,0.246093 23.009001,23.009001 0 0 0 -0.060547,0.05469 23.009001,23.009001 0 0 0 -0.230468,0.21289 23.009001,23.009001 0 0 0 -0.056641,0.05469 23.009001,23.009001 0 0 0 -0.263672,0.251953 23.009001,23.009001 0 0 0 -0.248047,0.244141 23.009001,23.009001 0 0 0 -0.078125,0.07813 23.009001,23.009001 0 0 0 -0.242187,0.25 23.009001,23.009001 0 0 0 -0.228516,0.242187 23.009001,23.009001 0 0 0 -0.097656,0.105469 23.009001,23.009001 0 0 0 -0.191406,0.208984 23.009001,23.009001 0 0 0 -0.146485,0.166016 23.009001,23.009001 0 0 0 -0.0625,0.07227 23.009001,23.009001 0 0 0 -0.146484,0.169921 23.009001,23.009001 0 0 0 -0.183594,0.214844 23.009001,23.009001 0 0 0 -0.039062,0.04687 23.009001,23.009001 0 0 0 -0.234375,0.289063 23.009001,23.009001 0 0 0 -0.25,0.316406 23.009001,23.009001 0 0 0 -0.201172,0.263672 23.009001,23.009001 0 0 0 -0.126953,0.171875 23.009001,23.009001 0 0 0 -0.152344,0.208984 23.009001,23.009001 0 0 0 -0.00195,0.002 23.009001,23.009001 0 0 0 -0.232422,0.328125 23.009001,23.009001 0 0 0 -0.183594,0.2675794 23.009001,23.009001 0 0 0 -0.087891,0.132812 23.009001,23.009001 0 0 0 -0.171874,0.261719 23.009001,23.009001 0 0 0 -0.015626,0.02344 23.009001,23.009001 0 0 0 -0.1875,0.300782 23.009001,23.009001 0 0 0 -0.060546,0.09766 23.009001,23.009001 0 0 0 -0.115235,0.191406 23.009001,23.009001 0 0 0 -0.091797,0.152344 23.009001,23.009001 0 0 0 -0.162109,0.279297 23.009001,23.009001 0 0 0 -0.197266,0.351562 23.009001,23.009001 0 0 0 -0.189453,0.355469 23.009001,23.009001 0 0 0 -0.136718,0.263672 23.009001,23.009001 0 0 0 -0.105469,0.208984 23.009001,23.009001 0 0 0 -0.107422,0.220703 23.009001,23.009001 0 0 0 -0.03125,0.06641 23.009001,23.009001 0 0 0 -0.132813,0.279296 23.009001,23.009001 0 0 0 -0.117187,0.257813 A 23.009001,23.009001 0 0 0 2.1177789e-4,23.008708 23.009001,23.009001 0 0 0 2.0099778,32.409098 v 0.002 a 23.009001,23.009001 0 0 0 0.166015,0.361328 23.009001,23.009001 0 0 0 0.00195,0.0059 23.009001,23.009001 0 0 0 0.171875,0.357422 23.009001,23.009001 0 0 0 0.091797,0.183594 23.009001,23.009001 0 0 0 0.08789,0.177734 23.009001,23.009001 0 0 0 0.00391,0.0059 23.009001,23.009001 0 0 0 0.183594,0.351563 23.009001,23.009001 0 0 0 0.00391,0.0059 23.009001,23.009001 0 0 0 0.189454,0.347656 23.009001,23.009001 0 0 0 0.00391,0.0059 23.009001,23.009001 0 0 0 0.40039,0.691406 23.009001,23.009001 0 0 0 0.00391,0.0059 23.009001,23.009001 0 0 0 0.029297,0.04883 23.009001,23.009001 0 0 0 0.380859,0.605469 23.009001,23.009001 0 0 0 0.015625,0.02344 23.009001,23.009001 0 0 0 0.00391,0.0059 23.009001,23.009001 0 0 0 0.21875,0.330078 23.009001,23.009001 0 0 0 0.03125,0.04492 23.009001,23.009001 0 0 0 0.199219,0.28711 23.009001,23.009001 0 0 0 0.00391,0.0039 23.009001,23.009001 0 0 0 0.230469,0.324218 23.009001,23.009001 0 0 0 0.00391,0.0039 23.009001,23.009001 0 0 0 0.06836,0.0918 23.009001,23.009001 0 0 0 0.355468,0.466796 23.009001,23.009001 0 0 0 0.060547,0.08008 23.009001,23.009001 0 0 0 0.00391,0.0039 23.009001,23.009001 0 0 0 0.248047,0.310547 23.009001,23.009001 0 0 0 0.00391,0.0039 23.009001,23.009001 0 0 0 0.253907,0.306641 23.009001,23.009001 0 0 0 0.00391,0.0039 23.009001,23.009001 0 0 0 0.257813,0.302734 23.009001,23.009001 0 0 0 0.00391,0.0039 23.009001,23.009001 0 0 0 0.265625,0.296874 23.009001,23.009001 0 0 0 0.00391,0.0039 23.009001,23.009001 0 0 0 0.269531,0.292969 23.009001,23.009001 0 0 0 0.00391,0.0039 23.009001,23.009001 0 0 0 0.273438,0.287109 23.009001,23.009001 0 0 0 0.00391,0.0039 23.009001,23.009001 0 0 0 0.285156,0.28711 23.009001,23.009001 0 0 0 0.283204,0.277343 23.009001,23.009001 0 0 0 0.00586,0.0039 23.009001,23.009001 0 0 0 0.289063,0.273437 23.009001,23.009001 0 0 0 0.060546,0.05469 23.009001,23.009001 0 0 0 0.236328,0.216797 23.009001,23.009001 0 0 0 0.00586,0.0039 23.009001,23.009001 0 0 0 0.298828,0.261719 23.009001,23.009001 0 0 0 0.00391,0.0039 23.009001,23.009001 0 0 0 0.302735,0.255859 23.009001,23.009001 0 0 0 0.00391,0.0039 23.009001,23.009001 0 0 0 0.308594,0.251953 23.009001,23.009001 0 0 0 0.173828,0.136718 23.009001,23.009001 0 0 0 0.142578,0.113282 23.009001,23.009001 0 0 0 0.00586,0.0039 23.009001,23.009001 0 0 0 0.314453,0.240234 23.009001,23.009001 0 0 0 0.00586,0.0039 23.009001,23.009001 0 0 0 0.320312,0.234374 23.009001,23.009001 0 0 0 0.195313,0.138672 23.009001,23.009001 0 0 0 0.134765,0.0957 23.009001,23.009001 0 0 0 0.00391,0.002 23.009001,23.009001 0 0 0 0.6582032,0.439453 23.009001,23.009001 0 0 0 0.0078,0.0059 23.009001,23.009001 0 0 0 0.0059,0.0039 23.009001,23.009001 0 0 0 0.335937,0.210938 23.009001,23.009001 0 0 0 0.0039,0.0039 23.009001,23.009001 0 0 0 0.339844,0.205078 23.009001,23.009001 0 0 0 0.0059,0.0039 23.009001,23.009001 0 0 0 0.695312,0.396484 23.009001,23.009001 0 0 0 0.142578,0.07617 23.009001,23.009001 0 0 0 0.212891,0.115234 23.009001,23.009001 0 0 0 0.0059,0.002 23.009001,23.009001 0 0 0 0.351563,0.181641 23.009001,23.009001 0 0 0 0.0059,0.0039 23.009001,23.009001 0 0 0 0.357422,0.175781 23.009001,23.009001 0 0 0 0.04492,0.02148 23.009001,23.009001 0 0 0 0.318359,0.15039 23.009001,23.009001 0 0 0 0.0059,0.002 23.009001,23.009001 0 0 0 0.126954,0.05664 23.009001,23.009001 0 0 0 0.08594,0.03906 23.009001,23.009001 0 0 0 0.002,0 23.009001,23.009001 0 0 0 9.398438,2.009765 23.009001,23.009001 0 0 0 9.40039,-2.009765 23.009001,23.009001 0 0 0 0.367188,-0.167969 23.009001,23.009001 0 0 0 0.361328,-0.171875 23.009001,23.009001 0 0 0 0.002,-0.002 23.009001,23.009001 0 0 0 1.070312,-0.558594 23.009001,23.009001 0 0 0 0.002,-0.002 23.009001,23.009001 0 0 0 1.039062,-0.615235 23.009001,23.009001 0 0 0 0.002,-0.002 23.009001,23.009001 0 0 0 1.003906,-0.667968 23.009001,23.009001 0 0 0 0.002,-0.002 23.009001,23.009001 0 0 0 0.65039,-0.47461 23.009001,23.009001 0 0 0 0.002,-0.002 23.009001,23.009001 0 0 0 0.316407,-0.244141 23.009001,23.009001 0 0 0 0.002,-0.002 23.009001,23.009001 0 0 0 1.527343,-1.3125 23.009001,23.009001 0 0 0 0.002,-0.002 23.009001,23.009001 0 0 0 0.576171,-0.560547 23.009001,23.009001 0 0 0 0.002,-0.002 23.009001,23.009001 0 0 0 0.002,-0.002 23.009001,23.009001 0 0 0 0.546875,-0.570313 23.009001,23.009001 0 0 0 0.0098,-0.0098 23.009001,23.009001 0 0 0 0.269532,-0.294922 23.009001,23.009001 0 0 0 0.002,-0.0039 23.009001,23.009001 0 0 0 0.525391,-0.607422 23.009001,23.009001 0 0 0 0.002,-0.0039 23.009001,23.009001 0 0 0 0.986328,-1.271485 23.009001,23.009001 0 0 0 0.002,-0.0039 23.009001,23.009001 0 0 0 0.134766,-0.189453 23.009001,23.009001 0 0 0 0.09766,-0.138672 23.009001,23.009001 0 0 0 0.224609,-0.330078 23.009001,23.009001 0 0 0 0.002,-0.0039 23.009001,23.009001 0 0 0 0.435547,-0.675782 23.009001,23.009001 0 0 0 0,-0.002 23.009001,23.009001 0 0 0 0.412109,-0.691406 23.009001,23.009001 0 0 0 0,-0.002 23.009001,23.009001 0 0 0 0.748047,-1.421875 23.009001,23.009001 0 0 0 0.0039,-0.0078 23.009001,23.009001 0 0 0 0.169922,-0.361328 23.009001,23.009001 0 0 0 0.002,-0.002 23.009001,23.009001 0 0 0 0.09766,-0.216797 v -0.002 a 23.009001,23.009001 0 0 0 2.007812,-9.398437 23.009001,23.009001 0 0 0 -2.007812,-9.400391 23.009001,23.009001 0 0 0 -0.166016,-0.365234 23.009001,23.009001 0 0 0 -0.002,-0.002 23.009001,23.009001 0 0 0 -0.173828,-0.361328 23.009001,23.009001 0 0 0 -0.002,-0.002 23.009001,23.009001 0 0 0 -0.177735,-0.357422 23.009001,23.009001 0 0 0 -0.002,-0.002 23.009001,23.009001 0 0 0 -0.185547,-0.355468 23.009001,23.009001 0 0 0 -0.002,-0.002 23.009001,23.009001 0 0 0 -0.191406,-0.353515 23.009001,23.009001 0 0 0 -0.002,-0.002 23.009001,23.009001 0 0 0 -0.197266,-0.347657 23.009001,23.009001 0 0 0 -0.002,-0.002 23.009001,23.009001 0 0 0 -0.203125,-0.345703 23.009001,23.009001 0 0 0 -0.002,-0.002 23.009001,23.009001 0 0 0 -0.210937,-0.341797 23.009001,23.009001 0 0 0 -0.002,-0.002 23.009001,23.009001 0 0 0 -0.214843,-0.337891 23.009001,23.009001 0 0 0 -0.002,-0.002 23.009001,23.009001 0 0 0 -0.220704,-0.332031 23.009001,23.009001 0 0 0 -0.002,-0.002 23.009001,23.009001 0 0 0 -0.228515,-0.3300784 23.009001,23.009001 0 0 0 -0.002,-0.002 23.009001,23.009001 0 0 0 -0.232422,-0.326172 23.009001,23.009001 0 0 0 -0.002,-0.002 23.009001,23.009001 0 0 0 -0.240235,-0.322266 23.009001,23.009001 0 0 0 -0.002,-0.002 23.009001,23.009001 0 0 0 -0.24414,-0.316406 23.009001,23.009001 0 0 0 -0.002,-0.002 23.009001,23.009001 0 0 0 -0.507812,-0.623047 23.009001,23.009001 0 0 0 -0.002,-0.002 23.009001,23.009001 0 0 0 -0.529297,-0.605469 23.009001,23.009001 0 0 0 -0.002,-0.002 23.009001,23.009001 0 0 0 -0.271485,-0.294922 23.009001,23.009001 0 0 0 -0.002,-0.002 23.009001,23.009001 0 0 0 -0.560547,-0.576172 23.009001,23.009001 0 0 0 -0.002,-0.002 23.009001,23.009001 0 0 0 -0.285156,-0.279297 23.009001,23.009001 0 0 0 -0.0039,-0.002 23.009001,23.009001 0 0 0 -0.273438,-0.259766 23.009001,23.009001 0 0 0 -0.01953,-0.01758 23.009001,23.009001 0 0 0 -0.294922,-0.269531 23.009001,23.009001 0 0 0 -0.0039,-0.002 23.009001,23.009001 0 0 0 -0.257813,-0.226563 23.009001,23.009001 0 0 0 -0.04492,-0.03906 23.009001,23.009001 0 0 0 -0.02344,-0.02148 23.009001,23.009001 0 0 0 -0.59375,-0.492187 23.009001,23.009001 0 0 0 -0.0039,-0.002 23.009001,23.009001 0 0 0 -0.3125,-0.248047 23.009001,23.009001 0 0 0 -0.0039,-0.002 23.009001,23.009001 0 0 0 -0.21875,-0.166016 23.009001,23.009001 0 0 0 -0.101562,-0.07813 23.009001,23.009001 0 0 0 -0.04883,-0.03516 23.009001,23.009001 0 0 0 -0.603516,-0.435547 23.009001,23.009001 0 0 0 -0.669922,-0.447266 23.009001,23.009001 0 0 0 -0.0039,-0.002 23.009001,23.009001 0 0 0 -0.138672,-0.08789 23.009001,23.009001 0 0 0 -0.201172,-0.126953 23.009001,23.009001 0 0 0 -0.08203,-0.05078 23.009001,23.009001 0 0 0 -0.609375,-0.361328 23.009001,23.009001 0 0 0 -0.002,0 23.009001,23.009001 0 0 0 -0.34961,-0.195313 23.009001,23.009001 0 0 0 -0.0039,-0.002 23.009001,23.009001 0 0 0 -0.597656,-0.314453 23.009001,23.009001 0 0 0 -0.115234,-0.06055 23.009001,23.009001 0 0 0 -0.121094,-0.06055 23.009001,23.009001 0 0 0 -0.603516,-0.289062 23.009001,23.009001 0 0 0 -0.002,0 23.009001,23.009001 0 0 0 -0.113281,-0.05078 23.009001,23.009001 0 0 0 -0.103516,-0.04687 23.009001,23.009001 0 0 0 -9.40039,-2.00781299439 23.009001,23.009001 0 0 0 -0.242188,0 z M 31.562712,9.0106606 c 0.328406,0.01101 0.647047,0.12925 0.904297,0.34375 0.345,0.286 0.542969,0.7072974 0.542969,1.1542974 v 14.5 4 0.01953 h -0.002 c -0.012,2.747 -2.249047,4.980469 -4.998047,4.980469 h -0.5 c -0.987,0 -1.932703,-0.420344 -2.595703,-1.152344 -0.662,-0.731 -0.984719,-1.718078 -0.886719,-2.705078 0.178,-1.763 1.769,-3.142578 3.625,-3.142578 h 1.357422 c 1.103,0 2,-0.897001 2,-2 v -9.794922 l -12,2.25 v 10.544922 4 c 0,2.756999 -2.243,4.999999 -5,5 h -0.5 c -0.987,0 -1.932703,-0.420344 -2.595703,-1.152344 -0.662,-0.731 -0.9847192,-1.718078 -0.886719,-2.705078 0.178,-1.763 1.769,-3.142578 3.625,-3.142578 h 1.357422 c 1.103,0 2,-0.897001 2,-2 V 13.36027 c 0,-0.963 0.686812,-1.788844 1.632812,-1.964844 L 31.23454,9.0360506 c 0.10975,-0.02075 0.218656,-0.02906 0.328125,-0.02539 z" />
</svg>
