<?xml version="1.0" encoding="UTF-8" standalone="no"?>
<svg
   xmlns:dc="http://purl.org/dc/elements/1.1/"
   xmlns:cc="http://creativecommons.org/ns#"
   xmlns:rdf="http://www.w3.org/1999/02/22-rdf-syntax-ns#"
   xmlns:svg="http://www.w3.org/2000/svg"
   xmlns="http://www.w3.org/2000/svg"
   xmlns:sodipodi="http://sodipodi.sourceforge.net/DTD/sodipodi-0.dtd"
   xmlns:inkscape="http://www.inkscape.org/namespaces/inkscape"
   fill="#000000"
   viewBox="0 0 46.018002 46.018002"
   width="46.018002"
   height="46.018002"
   version="1.1"
   id="svg4"
   sodipodi:docname="deezer.svg"
   inkscape:version="1.0.1 (3bc2e813f5, 2020-09-07)">
  <style
     id="style835"></style>
  <metadata
     id="metadata10">
    <rdf:RDF>
      <cc:Work
         rdf:about="">
        <dc:format>image/svg+xml</dc:format>
        <dc:type
           rdf:resource="http://purl.org/dc/dcmitype/StillImage" />
        <dc:title />
      </cc:Work>
    </rdf:RDF>
  </metadata>
  <defs
     id="defs8" />
  <sodipodi:namedview
     pagecolor="#ffffff"
     bordercolor="#666666"
     borderopacity="1"
     objecttolerance="10"
     gridtolerance="10"
     guidetolerance="10"
     inkscape:pageopacity="0"
     inkscape:pageshadow="2"
     inkscape:window-width="1366"
     inkscape:window-height="704"
     id="namedview6"
     showgrid="false"
     fit-margin-top="0"
     fit-margin-left="0"
     fit-margin-right="0"
     fit-margin-bottom="0"
     inkscape:zoom="3.4082547"
     inkscape:cx="9.5490418"
     inkscape:cy="37.221348"
     inkscape:window-x="0"
     inkscape:window-y="0"
     inkscape:window-maximized="1"
     inkscape:current-layer="svg4"
     inkscape:document-rotation="0" />
  <path
     id="path831"
     style="fill:#000000;stroke-width:0.192092;stroke-linecap:round;stroke-linejoin:round;stop-color:#000000"
     d="M 23.009978,2.117782e-4 A 23.009001,23.009001 0 0 0 2.117782e-4,23.009978 23.009001,23.009001 0 0 0 23.009978,46.01779 23.009001,23.009001 0 0 0 46.01779,23.009978 23.009001,23.009001 0 0 0 23.009978,2.117782e-4 Z M 32.795134,14.970915 h 5.591797 v 1.398438 H 32.795134 Z M 20.213103,17.066618 H 25.8049 v 1.398438 h -5.591797 z m 12.582031,0 h 5.591797 v 1.398438 H 32.795134 Z M 20.213103,19.164274 H 25.8049 v 1.398438 h -5.591797 z m 12.582031,0 h 5.591797 v 1.398438 H 32.795134 Z M 7.6310712,21.261931 h 5.5917968 v 1.396484 H 7.6310712 Z m 12.5820318,0 H 25.8049 v 1.396484 h -5.591797 z m 6.291015,0 h 5.591797 v 1.396484 h -5.591797 z m 6.291016,0 h 5.591797 v 1.396484 H 32.795134 Z M 7.6310712,23.357634 h 5.5917968 v 1.398437 H 7.6310712 Z m 12.5820318,0 H 25.8049 v 1.398437 h -5.591797 z m 6.291015,0 h 5.591797 v 1.398437 h -5.591797 z m 6.291016,0 h 5.591797 v 1.398437 H 32.795134 Z M 7.6310712,25.45529 h 5.5917968 v 1.398438 H 7.6310712 Z m 6.2910158,0 h 5.591797 v 1.398438 h -5.591797 z m 6.291016,0 H 25.8049 v 1.398438 h -5.591797 z m 6.291015,0 h 5.591797 v 1.398438 h -5.591797 z m 6.291016,0 h 5.591797 v 1.398438 H 32.795134 Z M 7.6310712,27.552946 h 5.5917968 v 1.396485 H 7.6310712 Z m 6.2910158,0 h 5.591797 v 1.396485 h -5.591797 z m 6.291016,0 H 25.8049 v 1.396485 h -5.591797 z m 6.291015,0 h 5.591797 v 1.396485 h -5.591797 z m 6.291016,0 h 5.591797 v 1.396485 H 32.795134 Z M 7.6310712,29.64865 h 5.5917968 v 1.398437 H 7.6310712 Z m 6.2910158,0 h 5.591797 v 1.398437 h -5.591797 z m 6.291016,0 H 25.8049 v 1.398437 h -5.591797 z m 6.291015,0 h 5.591797 v 1.398437 h -5.591797 z m 6.291016,0 h 5.591797 v 1.398437 h -5.591797 z" />
</svg>
