<?xml version="1.0" encoding="UTF-8" standalone="no"?>
<svg
   xmlns:dc="http://purl.org/dc/elements/1.1/"
   xmlns:cc="http://creativecommons.org/ns#"
   xmlns:rdf="http://www.w3.org/1999/02/22-rdf-syntax-ns#"
   xmlns:svg="http://www.w3.org/2000/svg"
   xmlns="http://www.w3.org/2000/svg"
   xmlns:sodipodi="http://sodipodi.sourceforge.net/DTD/sodipodi-0.dtd"
   xmlns:inkscape="http://www.inkscape.org/namespaces/inkscape"
   fill="#000000"
   viewBox="0 0 44 44"
   width="44"
   height="44"
   version="1.1"
   id="svg6"
   sodipodi:docname="youtube_music.svg"
   inkscape:version="1.0.1 (3bc2e813f5, 2020-09-07)">
  <style
     id="style837"></style>
  <metadata
     id="metadata12">
    <rdf:RDF>
      <cc:Work
         rdf:about="">
        <dc:format>image/svg+xml</dc:format>
        <dc:type
           rdf:resource="http://purl.org/dc/dcmitype/StillImage" />
        <dc:title></dc:title>
      </cc:Work>
    </rdf:RDF>
  </metadata>
  <defs
     id="defs10" />
  <sodipodi:namedview
     pagecolor="#ffffff"
     bordercolor="#666666"
     borderopacity="1"
     objecttolerance="10"
     gridtolerance="10"
     guidetolerance="10"
     inkscape:pageopacity="0"
     inkscape:pageshadow="2"
     inkscape:window-width="1366"
     inkscape:window-height="704"
     id="namedview8"
     showgrid="false"
     fit-margin-top="0"
     fit-margin-left="0"
     fit-margin-right="0"
     fit-margin-bottom="0"
     inkscape:zoom="9.64"
     inkscape:cx="22"
     inkscape:cy="22"
     inkscape:window-x="0"
     inkscape:window-y="0"
     inkscape:window-maximized="1"
     inkscape:current-layer="svg6" />
  <path
     d="m 22,10 c -6.617,0 -12,5.383 -12,12 0,6.617 5.383,12 12,12 6.617,0 12,-5.383 12,-12 0,-6.617 -5.383,-12 -12,-12 z m 6.521,12.854 -9,5.5 C 19.361,28.451 19.181,28.5 19,28.5 18.832,28.5 18.663,28.457 18.511,28.372 18.195,28.195 18,27.861 18,27.5 v -11 c 0,-0.361 0.195,-0.695 0.511,-0.872 0.317,-0.176 0.702,-0.169 1.011,0.019 l 9,5.5 C 28.818,21.328 29,21.651 29,22 c 0,0.349 -0.182,0.672 -0.479,0.854 z"
     id="path2" />
  <path
     d="M 22,0 C 9.85,0 0,9.85 0,22 0,34.15 9.85,44 22,44 34.15,44 44,34.15 44,22 44,9.85 34.15,0 22,0 Z m 0,36 C 14.28,36 8,29.72 8,22 8,14.28 14.28,8 22,8 c 7.72,0 14,6.28 14,14 0,7.72 -6.28,14 -14,14 z"
     id="path4" />
</svg>
