<?xml version="1.0" encoding="UTF-8" standalone="no"?>
<svg
   xmlns:dc="http://purl.org/dc/elements/1.1/"
   xmlns:cc="http://creativecommons.org/ns#"
   xmlns:rdf="http://www.w3.org/1999/02/22-rdf-syntax-ns#"
   xmlns:svg="http://www.w3.org/2000/svg"
   xmlns="http://www.w3.org/2000/svg"
   xmlns:sodipodi="http://sodipodi.sourceforge.net/DTD/sodipodi-0.dtd"
   xmlns:inkscape="http://www.inkscape.org/namespaces/inkscape"
   fill="#000000"
   viewBox="0 0 46.018002 46.018002"
   width="46.018002"
   height="46.018002"
   version="1.1"
   id="svg4"
   sodipodi:docname="youtube_2.svg"
   inkscape:version="1.0.1 (3bc2e813f5, 2020-09-07)">
  <style
     id="style835"></style>
  <metadata
     id="metadata10">
    <rdf:RDF>
      <cc:Work
         rdf:about="">
        <dc:format>image/svg+xml</dc:format>
        <dc:type
           rdf:resource="http://purl.org/dc/dcmitype/StillImage" />
        <dc:title />
      </cc:Work>
    </rdf:RDF>
  </metadata>
  <defs
     id="defs8" />
  <sodipodi:namedview
     pagecolor="#ffffff"
     bordercolor="#666666"
     borderopacity="1"
     objecttolerance="10"
     gridtolerance="10"
     guidetolerance="10"
     inkscape:pageopacity="0"
     inkscape:pageshadow="2"
     inkscape:window-width="1366"
     inkscape:window-height="704"
     id="namedview6"
     showgrid="false"
     fit-margin-top="0"
     fit-margin-left="0"
     fit-margin-right="0"
     fit-margin-bottom="0"
     inkscape:zoom="2.41"
     inkscape:cx="-39.862715"
     inkscape:cy="25.610407"
     inkscape:window-x="0"
     inkscape:window-y="0"
     inkscape:window-maximized="1"
     inkscape:current-layer="svg4"
     inkscape:document-rotation="0" />
  <path
     id="path844"
     style="fill:#000000;stroke:#ffffff;stroke-width:0.139478;stroke-linecap:round;stroke-linejoin:round;stop-color:#000000"
     d="M 22.820312 0.0703125 A 22.939262 22.93926 0 0 0 0.0703125 23.009766 A 22.939262 22.93926 0 0 0 23.009766 45.949219 A 22.939262 22.93926 0 0 0 45.949219 23.009766 A 22.939262 22.93926 0 0 0 23.009766 0.0703125 A 22.939262 22.93926 0 0 0 22.820312 0.0703125 z M 22.917969 13.257812 C 26.940178 13.257812 30.656864 13.563636 32.667969 13.990234 C 34.008705 14.294946 35.166386 15.268638 35.410156 16.609375 C 35.714869 18.132939 36.020693 20.267351 36.142578 23.009766 C 36.081636 25.69124 35.776973 27.884639 35.533203 29.408203 C 35.289433 30.809882 34.131752 31.724584 32.791016 32.029297 C 30.658026 32.455895 27.000726 32.759766 22.978516 32.759766 C 18.956307 32.759766 15.299006 32.455895 13.166016 32.029297 C 11.825279 31.724584 10.667598 30.748939 10.423828 29.408203 C 10.119115 27.884639 9.875 25.752182 9.875 23.009766 C 9.875 20.267351 10.119511 18.132939 10.363281 16.609375 C 10.607051 15.207696 11.764732 14.294946 13.105469 13.990234 C 15.116573 13.563636 18.895759 13.257812 22.917969 13.257812 z M 19.626953 18.742188 L 19.626953 27.275391 L 27.0625 23.009766 L 19.626953 18.742188 z " />
</svg>
